<svg width="24" height="25" viewBox="0 0 24 25" fill="none" xmlns="http://www.w3.org/2000/svg">
<path d="M4.84961 6.65039V20.6504H16.8496V22.3496H5C4.50935 22.3496 4.03835 22.1555 3.69141 21.8086C3.34446 21.4617 3.15039 20.9907 3.15039 20.5V6.65039H4.84961ZM9 2.65039H9.84961V7.7998L10.0898 7.62012L12 6.1875L13.9102 7.62012L14.1504 7.7998V2.65039H19C19.4907 2.65039 19.9616 2.84446 20.3086 3.19141C20.6555 3.53835 20.8496 4.00935 20.8496 4.5V16.5C20.8496 16.9907 20.6555 17.4617 20.3086 17.8086C19.9616 18.1555 19.4907 18.3496 19 18.3496H9C8.50935 18.3496 8.03835 18.1555 7.69141 17.8086C7.34446 17.4617 7.15039 16.9907 7.15039 16.5V4.5C7.15039 4.00935 7.34446 3.53835 7.69141 3.19141C8.03835 2.84446 8.50935 2.65039 9 2.65039Z" fill="#494947" stroke="#E8E8E6" stroke-width="0.3"/>
</svg>
