<svg width="18" height="19" viewBox="0 0 18 19" fill="none" xmlns="http://www.w3.org/2000/svg">
<path d="M17.0988 0.5H5.69883C5.46013 0.5 5.23121 0.594821 5.06243 0.763604C4.89365 0.932387 4.79883 1.16131 4.79883 1.4V12.8C4.79883 13.0387 4.89365 13.2676 5.06243 13.4364C5.23121 13.6052 5.46013 13.7 5.69883 13.7H17.0988C17.3375 13.7 17.5664 13.6052 17.7352 13.4364C17.904 13.2676 17.9988 13.0387 17.9988 12.8V1.4C17.9988 1.16131 17.904 0.932387 17.7352 0.763604C17.5664 0.594821 17.3375 0.5 17.0988 0.5ZM16.7988 12.5H5.99883V1.7H16.7988V12.5Z" fill="#494947"/>
<path d="M3.59941 14.8999V2.8999H2.39941V15.1999C2.39941 15.4386 2.49424 15.6675 2.66302 15.8363C2.8318 16.0051 3.06072 16.0999 3.29941 16.0999H15.5994V14.8999H3.59941Z" fill="#494947"/>
<path d="M1.2 17.3V5.30005H0V17.6C0 17.8387 0.0948212 18.0677 0.263604 18.2364C0.432387 18.4052 0.661305 18.5 0.9 18.5H13.2V17.3H1.2Z" fill="#494947"/>
</svg>
