<svg width="13" height="13" viewBox="0 0 13 13" fill="none" xmlns="http://www.w3.org/2000/svg">
<path d="M5.33901 2.78561H7.66044C7.66044 2.47777 7.53815 2.18254 7.32047 1.96486C7.10279 1.74718 6.80756 1.6249 6.49972 1.6249C6.19188 1.6249 5.89665 1.74718 5.67897 1.96486C5.4613 2.18254 5.33901 2.47777 5.33901 2.78561ZM4.64258 2.78561C4.64258 2.29306 4.83824 1.82069 5.18652 1.47241C5.5348 1.12413 6.00718 0.928467 6.49972 0.928467C6.99227 0.928467 7.46464 1.12413 7.81292 1.47241C8.1612 1.82069 8.35686 2.29306 8.35686 2.78561H11.2586C11.351 2.78561 11.4396 2.8223 11.5049 2.8876C11.5702 2.9529 11.6069 3.04147 11.6069 3.13382C11.6069 3.22618 11.5702 3.31475 11.5049 3.38005C11.4396 3.44535 11.351 3.48204 11.2586 3.48204H10.6504L10.0854 10.262C10.0443 10.7552 9.81933 11.215 9.45513 11.5501C9.09093 11.8853 8.61408 12.0713 8.11915 12.0713H4.88029C4.38536 12.0713 3.90851 11.8853 3.54431 11.5501C3.18011 11.215 2.95515 10.7552 2.91404 10.262L2.34901 3.48204H1.74079C1.64844 3.48204 1.55987 3.44535 1.49457 3.38005C1.42926 3.31475 1.39258 3.22618 1.39258 3.13382C1.39258 3.04147 1.42926 2.9529 1.49457 2.8876C1.55987 2.8223 1.64844 2.78561 1.74079 2.78561H4.64258ZM3.60815 10.204C3.6347 10.5231 3.78022 10.8206 4.01586 11.0375C4.2515 11.2544 4.56004 11.3748 4.88029 11.3749H8.11915C8.43941 11.3748 8.74795 11.2544 8.98358 11.0375C9.21922 10.8206 9.36474 10.5231 9.39129 10.204L9.95215 3.48204H3.04776L3.60815 10.204ZM5.45508 5.10704C5.54743 5.10704 5.636 5.14373 5.7013 5.20903C5.76661 5.27433 5.80329 5.3629 5.80329 5.45525V9.40168C5.80329 9.49403 5.76661 9.5826 5.7013 9.64791C5.636 9.71321 5.54743 9.7499 5.45508 9.7499C5.36273 9.7499 5.27416 9.71321 5.20885 9.64791C5.14355 9.5826 5.10686 9.49403 5.10686 9.40168V5.45525C5.10686 5.3629 5.14355 5.27433 5.20885 5.20903C5.27416 5.14373 5.36273 5.10704 5.45508 5.10704ZM7.89258 5.45525C7.89258 5.3629 7.85589 5.27433 7.79059 5.20903C7.72529 5.14373 7.63672 5.10704 7.54436 5.10704C7.45201 5.10704 7.36344 5.14373 7.29814 5.20903C7.23284 5.27433 7.19615 5.3629 7.19615 5.45525V9.40168C7.19615 9.49403 7.23284 9.5826 7.29814 9.64791C7.36344 9.71321 7.45201 9.7499 7.54436 9.7499C7.63672 9.7499 7.72529 9.71321 7.79059 9.64791C7.85589 9.5826 7.89258 9.49403 7.89258 9.40168V5.45525Z" fill="#494947"/>
</svg>
