<svg width="13" height="13" viewBox="0 0 13 13" fill="none" xmlns="http://www.w3.org/2000/svg">
<path fill-rule="evenodd" clip-rule="evenodd" d="M8.97642 10.2144V5.26202C8.97642 4.93366 8.84598 4.61874 8.61379 4.38656C8.3816 4.15437 8.06669 4.02393 7.73833 4.02393H2.78595C2.45758 4.02393 2.14267 4.15437 1.91048 4.38656C1.67829 4.61874 1.54785 4.93366 1.54785 5.26202V10.2144C1.54785 10.5428 1.67829 10.8577 1.91048 11.0899C2.14267 11.3221 2.45758 11.4525 2.78595 11.4525H7.73833C8.06669 11.4525 8.3816 11.3221 8.61379 11.0899C8.84598 10.8577 8.97642 10.5428 8.97642 10.2144Z" stroke="#494947" stroke-width="0.619048" stroke-linecap="round" stroke-linejoin="round"/>
<path d="M8.9767 8.97627H10.2148C10.5432 8.97627 10.8581 8.84583 11.0903 8.61364C11.3224 8.38146 11.4529 8.06654 11.4529 7.73818V2.78766C11.4529 2.45929 11.3224 2.14438 11.0903 1.91219C10.8581 1.68 10.5432 1.54956 10.2148 1.54956H10.2129L5.26056 1.55823C4.93252 1.55872 4.61808 1.68938 4.38629 1.92151C4.15451 2.15365 4.02432 2.46828 4.02432 2.79632V4.02389M5.26242 5.88104V9.59532M7.11956 7.73818H3.40527" stroke="#494947" stroke-width="0.619048" stroke-linecap="round" stroke-linejoin="round"/>
</svg>
