<svg width="16" height="11" viewBox="0 0 16 11" fill="none" xmlns="http://www.w3.org/2000/svg">
<path d="M7.9068 9.58043C10.9956 9.58043 13.6674 7.86615 15.0419 5.33333C13.6674 2.80051 10.9956 1.08623 7.9068 1.08623C4.818 1.08623 2.14618 2.80051 0.771664 5.33333C2.14618 7.86615 4.818 9.58043 7.9068 9.58043ZM7.9068 0.314026C11.428 0.314026 14.4705 2.36036 15.9068 5.33333C14.4705 8.3063 11.428 10.3526 7.9068 10.3526C4.38556 10.3526 1.34309 8.3063 -0.0932007 5.33333C1.34309 2.36036 4.38556 0.314026 7.9068 0.314026ZM7.9068 1.85843C9.8373 1.85843 11.3817 3.40283 11.3817 5.33333C11.3817 7.26383 9.8373 8.80823 7.9068 8.80823C5.9763 8.80823 4.4319 7.26383 4.4319 5.33333C4.4319 3.40283 5.9763 1.85843 7.9068 1.85843ZM7.9068 2.63063C7.19 2.63063 6.50255 2.91538 5.9957 3.42223C5.48884 3.92909 5.2041 4.61653 5.2041 5.33333C5.2041 6.05013 5.48884 6.73757 5.9957 7.24443C6.50255 7.75128 7.19 8.03603 7.9068 8.03603C8.6236 8.03603 9.31104 7.75128 9.8179 7.24443C10.3248 6.73757 10.6095 6.05013 10.6095 5.33333C10.6095 4.61653 10.3248 3.92909 9.8179 3.42223C9.31104 2.91538 8.6236 2.63063 7.9068 2.63063Z" fill="#5B5757"/>
</svg>
