<svg width="12" height="12" viewBox="0 0 12 12" fill="none" xmlns="http://www.w3.org/2000/svg">
<path fill-rule="evenodd" clip-rule="evenodd" d="M2.1525 5.81251L3.63 7.29001C3.68527 7.3415 3.72959 7.4036 3.76034 7.4726C3.79108 7.5416 3.80761 7.61609 3.80894 7.69162C3.81028 7.76714 3.79638 7.84216 3.76809 7.91221C3.7398 7.98225 3.69769 8.04587 3.64428 8.09929C3.59086 8.1527 3.52724 8.19481 3.4572 8.2231C3.38716 8.25139 3.31214 8.26528 3.23661 8.26395C3.16108 8.26262 3.0866 8.24609 3.0176 8.21534C2.9486 8.1846 2.8865 8.14027 2.835 8.08501L0.3975 5.64751L0 5.25001L0.3975 4.85251L2.835 2.41501C2.94163 2.31565 3.08267 2.26155 3.22839 2.26413C3.37412 2.2667 3.51316 2.32573 3.61622 2.42879C3.71928 2.53185 3.77831 2.67089 3.78088 2.81661C3.78345 2.96234 3.72936 3.10338 3.63 3.21001L2.1525 4.68751H9.5625C10.209 4.68751 10.829 4.94431 11.2861 5.40143C11.7432 5.85855 12 6.47854 12 7.12501C12 7.77147 11.7432 8.39146 11.2861 8.84858C10.829 9.3057 10.209 9.56251 9.5625 9.56251H8.0625C7.91332 9.56251 7.77024 9.50324 7.66475 9.39775C7.55926 9.29226 7.5 9.14919 7.5 9.00001C7.5 8.85082 7.55926 8.70775 7.66475 8.60226C7.77024 8.49677 7.91332 8.43751 8.0625 8.43751H9.5625C9.9106 8.43751 10.2444 8.29923 10.4906 8.05308C10.7367 7.80694 10.875 7.4731 10.875 7.12501C10.875 6.77691 10.7367 6.44307 10.4906 6.19693C10.2444 5.95079 9.9106 5.81251 9.5625 5.81251H2.1525Z" fill="#5B5757"/>
</svg>
