<svg width="19" height="22" viewBox="0 0 19 22" fill="none" xmlns="http://www.w3.org/2000/svg">
<path d="M3.85714 11H11M3.85714 13.8571H13.8571M3.85714 16.7143H8.14286M18.1429 18.1429V8.14286L11 1H3.85714C3.09938 1 2.37266 1.30102 1.83684 1.83684C1.30102 2.37266 1 3.09938 1 3.85714V18.1429C1 18.9006 1.30102 19.6273 1.83684 20.1632C2.37266 20.699 3.09938 21 3.85714 21H15.2857C16.0435 21 16.7702 20.699 17.306 20.1632C17.8418 19.6273 18.1429 18.9006 18.1429 18.1429Z" stroke="#5B5757" stroke-width="1.42857" stroke-linecap="round" stroke-linejoin="round"/>
<path d="M10.9999 1V5.28571C10.9999 6.04348 11.3009 6.7702 11.8367 7.30602C12.3725 7.84184 13.0993 8.14286 13.857 8.14286H18.1427" stroke="#5B5757" stroke-width="1.42857" stroke-linecap="round" stroke-linejoin="round"/>
</svg>
