<svg width="31" height="30" viewBox="0 0 31 30" fill="none" xmlns="http://www.w3.org/2000/svg">
<g clip-path="url(#clip0_1093_1852)">
<path d="M7.1639 22.9549C9.00446 24.7955 11.4263 25.9409 14.0168 26.1959C16.6072 26.4509 19.2059 25.7998 21.37 24.3534C23.5342 22.907 25.1298 20.755 25.885 18.264C26.6402 15.773 26.5082 13.0972 25.5116 10.6926C24.515 8.28799 22.7154 6.30338 20.4194 5.07697C18.1235 3.85056 15.4733 3.45826 12.9205 3.9669C10.3678 4.47554 8.07035 5.85366 6.41981 7.8664C4.76928 9.87915 3.86776 12.402 3.8689 15.0049V17.4999" stroke="#5B5757" stroke-width="1.875" stroke-linecap="round" stroke-linejoin="round"/>
<path d="M1.36768 15L3.86768 17.5L6.36768 15M13.8677 9.99997V16.25H20.1177" stroke="#5B5757" stroke-width="1.875" stroke-linecap="round" stroke-linejoin="round"/>
</g>
<defs>
<clipPath id="clip0_1093_1852">
<rect width="30" height="30" fill="white" transform="translate(0.119141)"/>
</clipPath>
</defs>
</svg>
