<svg width="14" height="15" viewBox="0 0 14 15" fill="none" xmlns="http://www.w3.org/2000/svg">
<path d="M11.0664 2.66011H3.01316C2.37778 2.66011 1.8627 3.17519 1.8627 3.81057V11.8638C1.8627 12.4992 2.37778 13.0142 3.01316 13.0142H11.0664C11.7017 13.0142 12.2168 12.4992 12.2168 11.8638V3.81057C12.2168 3.17519 11.7017 2.66011 11.0664 2.66011Z" stroke="#E5E6E1" stroke-width="0.487253" stroke-linecap="round" stroke-linejoin="round"/>
<path d="M5.31278 7.26303C5.94816 7.26303 6.46324 6.74795 6.46324 6.11257C6.46324 5.47719 5.94816 4.96211 5.31278 4.96211C4.6774 4.96211 4.16232 5.47719 4.16232 6.11257C4.16232 6.74795 4.6774 7.26303 5.31278 7.26303Z" stroke="#E5E6E1" stroke-width="0.487253" stroke-linecap="round" stroke-linejoin="round"/>
<path d="M12.2167 9.56378L10.4416 7.78862C10.2258 7.57294 9.93325 7.45178 9.62819 7.45178C9.32313 7.45178 9.03056 7.57294 8.81482 7.78862L3.58829 13.0152" stroke="#E5E6E1" stroke-width="0.487253" stroke-linecap="round" stroke-linejoin="round"/>
</svg>
