<svg width="17" height="17" viewBox="0 0 17 17" fill="none" xmlns="http://www.w3.org/2000/svg">
<g clip-path="url(#clip0_485_3681)">
<path d="M15.25 1.06006H5.75C5.55109 1.06006 5.36032 1.13908 5.21967 1.27973C5.07902 1.42038 5 1.61115 5 1.81006V11.3101C5 11.509 5.07902 11.6997 5.21967 11.8404C5.36032 11.981 5.55109 12.0601 5.75 12.0601H15.25C15.4489 12.0601 15.6397 11.981 15.7803 11.8404C15.921 11.6997 16 11.509 16 11.3101V1.81006C16 1.61115 15.921 1.42038 15.7803 1.27973C15.6397 1.13908 15.4489 1.06006 15.25 1.06006ZM15 11.0601H6V2.06006H15V11.0601Z" fill="#001011"/>
<path d="M4 13.0601V3.06006H3V13.3101C3 13.509 3.07902 13.6997 3.21967 13.8404C3.36032 13.981 3.55109 14.0601 3.75 14.0601H14V13.0601H4Z" fill="#001011"/>
<path d="M2 15.0601V5.06006H1V15.3101C1 15.509 1.07902 15.6997 1.21967 15.8404C1.36032 15.981 1.55109 16.0601 1.75 16.0601H12V15.0601H2Z" fill="#001011"/>
</g>
<defs>
<clipPath id="clip0_485_3681">
<rect width="16" height="16" fill="white" transform="translate(0.5 0.560059)"/>
</clipPath>
</defs>
</svg>
