<svg width="22" height="22" viewBox="0 0 22 22" fill="none" xmlns="http://www.w3.org/2000/svg">
<path d="M16.4591 17.8064V16.6906H8.36481C7.20732 16.6906 6.22166 16.2937 5.40784 15.5C4.59253 14.7063 4.18488 13.737 4.18488 12.5921C4.18488 11.4473 4.59216 10.4817 5.40672 9.69541C6.22203 8.90837 7.20806 8.51485 8.36481 8.51485H17.0036L13.6952 11.8233L14.4852 12.6133L19.1416 7.95693L14.4852 3.30054L13.6952 4.09055L17.0036 7.39901H8.36481C6.90455 7.39901 5.65667 7.90263 4.62117 8.90986C3.58716 9.91709 3.07016 11.1445 3.07016 12.5921C3.07016 14.0397 3.58716 15.2709 4.62117 16.2856C5.65518 17.3002 6.90344 17.8072 8.36593 17.8064H16.4591Z" fill="#969695"/>
</svg>
