<svg width="13" height="13" viewBox="0 0 13 13" fill="none" xmlns="http://www.w3.org/2000/svg">
<path d="M11.3646 5.5594L9.03517 7.88887C8.97998 7.9403 8.90697 7.96831 8.83153 7.96697C8.75609 7.96564 8.68412 7.93508 8.63077 7.88173C8.57742 7.82838 8.54686 7.75641 8.54553 7.68097C8.5442 7.60554 8.5722 7.53253 8.62363 7.47733L10.4557 5.64481H8.29557C7.32689 5.64401 6.38548 5.96546 5.61958 6.55853C4.85369 7.1516 4.30683 7.98259 4.06515 8.92063C4.04584 8.99541 3.99762 9.05946 3.93109 9.09869C3.86456 9.13791 3.78517 9.14911 3.71039 9.1298C3.63561 9.11049 3.57156 9.06227 3.53233 8.99574C3.49311 8.92921 3.48192 8.84982 3.50122 8.77504C3.77519 7.71198 4.39495 6.77024 5.26292 6.09811C6.1309 5.42598 7.19778 5.06163 8.29557 5.06244H10.4566L8.62363 3.22993C8.5722 3.17473 8.5442 3.10172 8.54553 3.02628C8.54686 2.95085 8.57742 2.87887 8.63077 2.82552C8.68412 2.77217 8.75609 2.74161 8.83153 2.74028C8.90697 2.73895 8.97998 2.76695 9.03517 2.81838L11.3646 5.14786C11.4192 5.20245 11.4498 5.27646 11.4498 5.35363C11.4498 5.43079 11.4192 5.5048 11.3646 5.5594ZM9.6059 10.4979H2.13217V4.57714C2.13217 4.49991 2.10149 4.42585 2.04689 4.37124C1.99228 4.31663 1.91822 4.28595 1.84099 4.28595C1.76376 4.28595 1.6897 4.31663 1.63509 4.37124C1.58048 4.42585 1.5498 4.49991 1.5498 4.57714V10.7891C1.5498 10.8663 1.58048 10.9404 1.63509 10.995C1.6897 11.0496 1.76376 11.0802 1.84099 11.0802H9.6059C9.68312 11.0802 9.75719 11.0496 9.81179 10.995C9.8664 10.9404 9.89708 10.8663 9.89708 10.7891C9.89708 10.7118 9.8664 10.6378 9.81179 10.5832C9.75719 10.5286 9.68312 10.4979 9.6059 10.4979Z" fill="#494947"/>
</svg>
