<svg width="32" height="32" viewBox="0 0 32 32" fill="none" xmlns="http://www.w3.org/2000/svg">
<path fill-rule="evenodd" clip-rule="evenodd" d="M11.5631 10.056H20.4378C24.9365 10.056 27.1871 10.056 28.4511 11.372C29.7151 12.688 29.4165 14.72 28.8218 18.7853L28.2591 22.6413C27.7925 25.8293 27.5591 27.424 26.3631 28.3787C25.1671 29.3333 23.4031 29.3333 19.8738 29.3333H12.1271C8.59913 29.3333 6.83379 29.3333 5.63779 28.3787C4.44179 27.424 4.20846 25.8293 3.74179 22.6413L3.17913 18.7853C2.58313 14.72 2.28579 12.688 3.54979 11.372C4.81379 10.056 7.06446 10.056 11.5631 10.056ZM10.6671 24C10.6671 23.448 11.1645 23 11.7778 23H20.2231C20.8365 23 21.3338 23.448 21.3338 24C21.3338 24.552 20.8365 25 20.2231 25H11.7778C11.1645 25 10.6671 24.552 10.6671 24Z" fill="#5B5757"/>
<path opacity="0.4" d="M11.3466 2.66666H20.6532C20.9639 2.66666 21.1999 2.66666 21.4092 2.68666C22.8866 2.832 24.0946 3.72 24.6079 4.916H7.39191C7.90524 3.72 9.11457 2.832 10.5919 2.68666C10.7986 2.66666 11.0372 2.66666 11.3466 2.66666Z" fill="#5B5757"/>
<path opacity="0.7" d="M8.41328 6.29688C6.55995 6.29688 5.03995 7.41688 4.53328 8.90088L4.50128 8.99421C5.03914 8.83883 5.58839 8.72604 6.14395 8.65688C7.58395 8.47288 9.40528 8.47288 11.5199 8.47288H20.7093C22.8239 8.47288 24.6453 8.47288 26.0853 8.65688C26.6453 8.72888 27.1973 8.83421 27.7279 8.99421L27.6973 8.90088C27.1906 7.41554 25.6706 6.29688 23.8159 6.29688H8.41328Z" fill="#5B5757"/>
</svg>
