<svg width="17" height="15" viewBox="0 0 17 15" fill="none" xmlns="http://www.w3.org/2000/svg">
<path d="M3.54088 14.8065V13.6906H11.6352C12.7927 13.6906 13.7783 13.2938 14.5921 12.5C15.4075 11.7063 15.8151 10.737 15.8151 9.59217C15.8151 8.44732 15.4078 7.48175 14.5933 6.69546C13.778 5.90842 12.7919 5.5149 11.6352 5.5149H2.99635L6.30481 8.82336L5.51479 9.61337L0.858398 4.95698L5.51479 0.300583L6.30481 1.0906L2.99635 4.39906H11.6352C13.0954 4.39906 14.3433 4.90267 15.3788 5.90991C16.4128 6.91714 16.9298 8.14456 16.9298 9.59217C16.9298 11.0398 16.4128 12.2709 15.3788 13.2856C14.3448 14.3003 13.0965 14.8072 11.6341 14.8065H3.54088Z" fill="#969695"/>
</svg>
